<mxfile host="Electron" modified="2023-10-18T17:37:49.287Z" agent="Mozilla/5.0 (Windows NT 10.0; Win64; x64) AppleWebKit/537.36 (KHTML, like Gecko) draw.io/22.0.2 Chrome/114.0.5735.289 Electron/25.8.4 Safari/537.36" etag="u1TCNJGwCRRsHOATIp38" version="22.0.2" type="device">
  <diagram name="第 1 页" id="mc4QwLithHe49dH0X_NZ">
    <mxGraphModel dx="2261" dy="844" grid="1" gridSize="10" guides="1" tooltips="1" connect="1" arrows="1" fold="1" page="1" pageScale="1" pageWidth="827" pageHeight="1169" math="0" shadow="0">
      <root>
        <mxCell id="0" />
        <mxCell id="1" parent="0" />
        <mxCell id="zeuDGF3sF1mkNjUxLNfV-101" value="" style="endArrow=block;html=1;rounded=0;labelBackgroundColor=default;strokeColor=default;strokeWidth=1.5;align=center;verticalAlign=middle;fontFamily=Helvetica;fontSize=12;fontColor=default;shape=connector;endFill=1;" edge="1" parent="1">
          <mxGeometry width="50" height="50" relative="1" as="geometry">
            <mxPoint x="610" y="375" as="sourcePoint" />
            <mxPoint x="660" y="345" as="targetPoint" />
            <Array as="points">
              <mxPoint x="610" y="362" />
              <mxPoint x="810" y="362" />
              <mxPoint x="810" y="345" />
            </Array>
          </mxGeometry>
        </mxCell>
        <mxCell id="zeuDGF3sF1mkNjUxLNfV-102" value="创建一个代表已登录用户的Subject&lt;br&gt;loggedIn = createSubject(token, info, subject)" style="edgeLabel;html=1;align=center;verticalAlign=middle;resizable=0;points=[];" vertex="1" connectable="0" parent="zeuDGF3sF1mkNjUxLNfV-101">
          <mxGeometry x="0.3971" y="-2" relative="1" as="geometry">
            <mxPoint x="45" y="28" as="offset" />
          </mxGeometry>
        </mxCell>
        <mxCell id="zeuDGF3sF1mkNjUxLNfV-103" value="再调用onSuccessfulLogin(token, info, loggedIn)，&lt;br&gt;去调用RememberMeManager做记住我的操作" style="edgeLabel;html=1;align=center;verticalAlign=middle;resizable=0;points=[];" vertex="1" connectable="0" parent="zeuDGF3sF1mkNjUxLNfV-101">
          <mxGeometry x="0.4" y="1" relative="1" as="geometry">
            <mxPoint x="66" y="-14" as="offset" />
          </mxGeometry>
        </mxCell>
        <mxCell id="zeuDGF3sF1mkNjUxLNfV-98" value="" style="endArrow=block;html=1;rounded=0;labelBackgroundColor=default;strokeColor=default;strokeWidth=1.5;align=center;verticalAlign=middle;fontFamily=Helvetica;fontSize=12;fontColor=default;shape=connector;endFill=1;" edge="1" parent="1">
          <mxGeometry width="50" height="50" relative="1" as="geometry">
            <mxPoint x="580" y="499" as="sourcePoint" />
            <mxPoint x="680" y="469" as="targetPoint" />
            <Array as="points">
              <mxPoint x="580" y="486" />
              <mxPoint x="780" y="486" />
              <mxPoint x="780" y="469" />
            </Array>
          </mxGeometry>
        </mxCell>
        <mxCell id="zeuDGF3sF1mkNjUxLNfV-99" value="出现异常，则通知失败notifyFailure(token, ae)，&lt;br&gt;反之通知成功notifySuccess(token, info)，前提&lt;br&gt;实现且配置了AuthenticationListener" style="edgeLabel;html=1;align=center;verticalAlign=middle;resizable=0;points=[];fontSize=12;fontFamily=Helvetica;fontColor=default;" vertex="1" connectable="0" parent="zeuDGF3sF1mkNjUxLNfV-98">
          <mxGeometry x="0.3971" y="-2" relative="1" as="geometry">
            <mxPoint x="52" y="-12" as="offset" />
          </mxGeometry>
        </mxCell>
        <mxCell id="zeuDGF3sF1mkNjUxLNfV-65" style="edgeStyle=orthogonalEdgeStyle;shape=connector;rounded=0;orthogonalLoop=1;jettySize=auto;html=1;labelBackgroundColor=default;strokeColor=#6c8ebf;strokeWidth=1.5;align=center;verticalAlign=middle;fontFamily=Helvetica;fontSize=12;fontColor=default;endArrow=block;endFill=1;entryX=0.75;entryY=1;entryDx=0;entryDy=0;fillColor=#dae8fc;dashed=1;" edge="1" parent="1" target="zeuDGF3sF1mkNjUxLNfV-59">
          <mxGeometry relative="1" as="geometry">
            <mxPoint x="30" y="700" as="sourcePoint" />
          </mxGeometry>
        </mxCell>
        <mxCell id="zeuDGF3sF1mkNjUxLNfV-68" style="edgeStyle=orthogonalEdgeStyle;shape=connector;rounded=0;orthogonalLoop=1;jettySize=auto;html=1;labelBackgroundColor=default;strokeColor=#6c8ebf;strokeWidth=1.5;align=center;verticalAlign=middle;fontFamily=Helvetica;fontSize=12;fontColor=default;endArrow=block;endFill=1;entryX=0.5;entryY=1;entryDx=0;entryDy=0;fillColor=#dae8fc;dashed=1;" edge="1" parent="1">
          <mxGeometry relative="1" as="geometry">
            <mxPoint x="-30" y="680" as="targetPoint" />
            <mxPoint x="13" y="735" as="sourcePoint" />
            <Array as="points">
              <mxPoint x="-30" y="735" />
            </Array>
          </mxGeometry>
        </mxCell>
        <mxCell id="zeuDGF3sF1mkNjUxLNfV-78" value="" style="endArrow=block;html=1;rounded=0;labelBackgroundColor=default;strokeColor=default;strokeWidth=1.5;align=center;verticalAlign=middle;fontFamily=Helvetica;fontSize=12;fontColor=default;shape=connector;endFill=1;" edge="1" parent="1">
          <mxGeometry width="50" height="50" relative="1" as="geometry">
            <mxPoint x="280" y="705" as="sourcePoint" />
            <mxPoint x="280" y="600" as="targetPoint" />
          </mxGeometry>
        </mxCell>
        <mxCell id="zeuDGF3sF1mkNjUxLNfV-79" value="判断认证信息，为空抛出异常" style="edgeLabel;html=1;align=center;verticalAlign=middle;resizable=0;points=[];fontSize=12;fontFamily=Helvetica;fontColor=default;" vertex="1" connectable="0" parent="zeuDGF3sF1mkNjUxLNfV-78">
          <mxGeometry y="-3" relative="1" as="geometry">
            <mxPoint x="-3" y="-31" as="offset" />
          </mxGeometry>
        </mxCell>
        <mxCell id="zeuDGF3sF1mkNjUxLNfV-28" style="edgeStyle=orthogonalEdgeStyle;shape=connector;rounded=0;orthogonalLoop=1;jettySize=auto;html=1;exitX=0.75;exitY=1;exitDx=0;exitDy=0;labelBackgroundColor=default;strokeColor=#6c8ebf;strokeWidth=1.5;align=center;verticalAlign=middle;fontFamily=Helvetica;fontSize=12;fontColor=default;endArrow=block;endFill=1;fillColor=#dae8fc;dashed=1;" edge="1" parent="1" target="zeuDGF3sF1mkNjUxLNfV-19">
          <mxGeometry relative="1" as="geometry">
            <mxPoint x="411" y="326" as="targetPoint" />
            <mxPoint x="481" y="346" as="sourcePoint" />
            <Array as="points">
              <mxPoint x="481" y="347" />
              <mxPoint x="411" y="347" />
            </Array>
          </mxGeometry>
        </mxCell>
        <mxCell id="zeuDGF3sF1mkNjUxLNfV-17" style="edgeStyle=orthogonalEdgeStyle;shape=connector;rounded=0;orthogonalLoop=1;jettySize=auto;html=1;exitX=0.5;exitY=1;exitDx=0;exitDy=0;labelBackgroundColor=default;strokeColor=#6c8ebf;strokeWidth=1.5;align=center;verticalAlign=middle;fontFamily=Helvetica;fontSize=12;fontColor=default;endArrow=block;endFill=1;dashed=1;fillColor=#dae8fc;" edge="1" parent="1" target="zeuDGF3sF1mkNjUxLNfV-5">
          <mxGeometry relative="1" as="geometry">
            <mxPoint x="369" y="204" as="targetPoint" />
            <mxPoint x="499" y="254" as="sourcePoint" />
            <Array as="points">
              <mxPoint x="499" y="255" />
              <mxPoint x="369" y="255" />
            </Array>
          </mxGeometry>
        </mxCell>
        <mxCell id="zeuDGF3sF1mkNjUxLNfV-4" style="edgeStyle=orthogonalEdgeStyle;shape=connector;rounded=0;orthogonalLoop=1;jettySize=auto;html=1;exitX=0.5;exitY=1;exitDx=0;exitDy=0;entryX=0.5;entryY=0;entryDx=0;entryDy=0;labelBackgroundColor=default;strokeColor=default;strokeWidth=1.5;align=center;verticalAlign=middle;fontFamily=Helvetica;fontSize=12;fontColor=default;endArrow=block;endFill=1;" edge="1" parent="1" source="zeuDGF3sF1mkNjUxLNfV-1" target="zeuDGF3sF1mkNjUxLNfV-3">
          <mxGeometry relative="1" as="geometry" />
        </mxCell>
        <mxCell id="zeuDGF3sF1mkNjUxLNfV-7" value="调用ThreadContext.getSubject()，获取内部维护的&lt;br&gt;ThreadLocal&amp;lt;Map&amp;lt;Object, Object&amp;gt;&amp;gt; resources，然后&lt;br&gt;resources.get(&quot;org.apache.shiro.util.ThreadContext_&lt;br&gt;SUBJECT_KEY&quot;)" style="edgeLabel;html=1;align=center;verticalAlign=middle;resizable=0;points=[];" vertex="1" connectable="0" parent="zeuDGF3sF1mkNjUxLNfV-4">
          <mxGeometry x="-0.35" y="-3" relative="1" as="geometry">
            <mxPoint x="3" y="9" as="offset" />
          </mxGeometry>
        </mxCell>
        <mxCell id="zeuDGF3sF1mkNjUxLNfV-1" value="SecurityUtils.getSubject()" style="rounded=0;whiteSpace=wrap;html=1;strokeColor=default;strokeWidth=1.5;align=center;verticalAlign=middle;fontFamily=Helvetica;fontSize=12;fontColor=default;fillColor=default;" vertex="1" parent="1">
          <mxGeometry x="482" y="40" width="160" height="40" as="geometry" />
        </mxCell>
        <mxCell id="zeuDGF3sF1mkNjUxLNfV-9" style="edgeStyle=orthogonalEdgeStyle;shape=connector;rounded=0;orthogonalLoop=1;jettySize=auto;html=1;exitX=0.5;exitY=1;exitDx=0;exitDy=0;entryX=0.5;entryY=0;entryDx=0;entryDy=0;labelBackgroundColor=default;strokeColor=default;strokeWidth=1.5;align=center;verticalAlign=middle;fontFamily=Helvetica;fontSize=12;fontColor=default;endArrow=block;endFill=1;" edge="1" parent="1" source="zeuDGF3sF1mkNjUxLNfV-3" target="zeuDGF3sF1mkNjUxLNfV-8">
          <mxGeometry relative="1" as="geometry" />
        </mxCell>
        <mxCell id="zeuDGF3sF1mkNjUxLNfV-10" value="UsernamePasswordToken token = new UsernamePasswordToken(&lt;br&gt;sysUser.getUsername(), sysUser.getPassword(), true)" style="edgeLabel;html=1;align=center;verticalAlign=middle;resizable=0;points=[];" vertex="1" connectable="0" parent="zeuDGF3sF1mkNjUxLNfV-9">
          <mxGeometry x="-0.05" y="-1" relative="1" as="geometry">
            <mxPoint x="1" y="-16" as="offset" />
          </mxGeometry>
        </mxCell>
        <mxCell id="zeuDGF3sF1mkNjUxLNfV-14" value="&lt;span style=&quot;background-color: rgb(255, 255, 102);&quot;&gt;调用subject.login(token)&lt;/span&gt;" style="edgeLabel;html=1;align=center;verticalAlign=middle;resizable=0;points=[];fontSize=12;fontFamily=Helvetica;fontColor=default;" vertex="1" connectable="0" parent="zeuDGF3sF1mkNjUxLNfV-9">
          <mxGeometry x="0.325" y="-1" relative="1" as="geometry">
            <mxPoint y="1" as="offset" />
          </mxGeometry>
        </mxCell>
        <mxCell id="zeuDGF3sF1mkNjUxLNfV-3" value="WebDelegatingSubject" style="rounded=0;whiteSpace=wrap;html=1;strokeColor=default;strokeWidth=1.5;align=center;verticalAlign=middle;fillColor=default;" vertex="1" parent="1">
          <mxGeometry x="482" y="160" width="160" height="40" as="geometry" />
        </mxCell>
        <mxCell id="zeuDGF3sF1mkNjUxLNfV-6" style="edgeStyle=orthogonalEdgeStyle;shape=connector;rounded=0;orthogonalLoop=1;jettySize=auto;html=1;exitX=0;exitY=0.5;exitDx=0;exitDy=0;entryX=1;entryY=0.5;entryDx=0;entryDy=0;labelBackgroundColor=default;strokeColor=#6c8ebf;strokeWidth=1.5;align=center;verticalAlign=middle;fontFamily=Helvetica;fontSize=12;fontColor=default;endArrow=block;endFill=1;fillColor=#dae8fc;dashed=1;" edge="1" parent="1" source="zeuDGF3sF1mkNjUxLNfV-3" target="zeuDGF3sF1mkNjUxLNfV-5">
          <mxGeometry relative="1" as="geometry" />
        </mxCell>
        <mxCell id="zeuDGF3sF1mkNjUxLNfV-5" value="DelegatingSubject" style="rounded=0;whiteSpace=wrap;html=1;strokeColor=#3333FF;strokeWidth=1.5;align=center;verticalAlign=middle;fillColor=default;dashed=1;" vertex="1" parent="1">
          <mxGeometry x="280" y="160" width="160" height="40" as="geometry" />
        </mxCell>
        <mxCell id="zeuDGF3sF1mkNjUxLNfV-22" style="edgeStyle=orthogonalEdgeStyle;shape=connector;rounded=0;orthogonalLoop=1;jettySize=auto;html=1;exitX=0.5;exitY=1;exitDx=0;exitDy=0;entryX=0.5;entryY=0;entryDx=0;entryDy=0;labelBackgroundColor=default;strokeColor=default;strokeWidth=1.5;align=center;verticalAlign=middle;fontFamily=Helvetica;fontSize=12;fontColor=default;endArrow=block;endFill=1;" edge="1" parent="1" source="zeuDGF3sF1mkNjUxLNfV-8" target="zeuDGF3sF1mkNjUxLNfV-21">
          <mxGeometry relative="1" as="geometry" />
        </mxCell>
        <mxCell id="zeuDGF3sF1mkNjUxLNfV-23" value="调用securityManager.login(this, token)" style="edgeLabel;html=1;align=center;verticalAlign=middle;resizable=0;points=[];" vertex="1" connectable="0" parent="zeuDGF3sF1mkNjUxLNfV-22">
          <mxGeometry x="-0.375" y="-1" relative="1" as="geometry">
            <mxPoint as="offset" />
          </mxGeometry>
        </mxCell>
        <mxCell id="zeuDGF3sF1mkNjUxLNfV-29" value="调用authenticate(AuthenticationToken token)" style="edgeLabel;html=1;align=center;verticalAlign=middle;resizable=0;points=[];" vertex="1" connectable="0" parent="zeuDGF3sF1mkNjUxLNfV-22">
          <mxGeometry x="0.275" y="-2" relative="1" as="geometry">
            <mxPoint as="offset" />
          </mxGeometry>
        </mxCell>
        <mxCell id="zeuDGF3sF1mkNjUxLNfV-8" value="DefaultWebSecurityManager" style="rounded=0;whiteSpace=wrap;html=1;strokeColor=default;strokeWidth=1.5;align=center;verticalAlign=middle;fillColor=default;" vertex="1" parent="1">
          <mxGeometry x="482" y="280" width="160" height="40" as="geometry" />
        </mxCell>
        <mxCell id="zeuDGF3sF1mkNjUxLNfV-11" value="Subject" style="rounded=0;whiteSpace=wrap;html=1;strokeColor=#3333FF;strokeWidth=1.5;align=center;verticalAlign=middle;fontFamily=Helvetica;fontSize=12;fontColor=default;fillColor=default;dashed=1;" vertex="1" parent="1">
          <mxGeometry x="80" y="160" width="160" height="40" as="geometry" />
        </mxCell>
        <mxCell id="zeuDGF3sF1mkNjUxLNfV-13" style="edgeStyle=orthogonalEdgeStyle;shape=connector;rounded=0;orthogonalLoop=1;jettySize=auto;html=1;exitX=1;exitY=0.5;exitDx=0;exitDy=0;entryX=0;entryY=0.5;entryDx=0;entryDy=0;labelBackgroundColor=default;strokeColor=#6c8ebf;strokeWidth=1.5;align=center;verticalAlign=middle;fontFamily=Helvetica;fontSize=12;fontColor=default;endArrow=block;endFill=1;fillColor=#dae8fc;dashed=1;" edge="1" parent="1">
          <mxGeometry relative="1" as="geometry">
            <mxPoint x="282" y="179.5" as="sourcePoint" />
            <mxPoint x="240" y="179.5" as="targetPoint" />
          </mxGeometry>
        </mxCell>
        <mxCell id="zeuDGF3sF1mkNjUxLNfV-19" value="DefaultSecurityManager" style="rounded=0;whiteSpace=wrap;html=1;strokeColor=#3333FF;strokeWidth=1.5;align=center;verticalAlign=middle;fillColor=default;dashed=1;" vertex="1" parent="1">
          <mxGeometry x="280" y="280" width="160" height="40" as="geometry" />
        </mxCell>
        <mxCell id="zeuDGF3sF1mkNjUxLNfV-32" style="edgeStyle=orthogonalEdgeStyle;shape=connector;rounded=0;orthogonalLoop=1;jettySize=auto;html=1;exitX=0.75;exitY=1;exitDx=0;exitDy=0;labelBackgroundColor=default;strokeColor=#6c8ebf;strokeWidth=1.5;align=center;verticalAlign=middle;fontFamily=Helvetica;fontSize=12;fontColor=default;endArrow=block;endFill=1;dashed=1;fillColor=#dae8fc;" edge="1" parent="1" target="zeuDGF3sF1mkNjUxLNfV-20">
          <mxGeometry relative="1" as="geometry">
            <mxPoint x="205" y="323" as="targetPoint" />
            <mxPoint x="465" y="373" as="sourcePoint" />
            <Array as="points">
              <mxPoint x="465" y="374" />
              <mxPoint x="200" y="374" />
            </Array>
          </mxGeometry>
        </mxCell>
        <mxCell id="zeuDGF3sF1mkNjUxLNfV-20" value="AuthenticatingSecurityManager" style="rounded=0;whiteSpace=wrap;html=1;strokeColor=#3333FF;strokeWidth=1.5;align=center;verticalAlign=middle;fillColor=default;dashed=1;" vertex="1" parent="1">
          <mxGeometry x="80" y="280" width="160" height="40" as="geometry" />
        </mxCell>
        <mxCell id="zeuDGF3sF1mkNjUxLNfV-34" style="edgeStyle=orthogonalEdgeStyle;shape=connector;rounded=0;orthogonalLoop=1;jettySize=auto;html=1;exitX=0;exitY=0.5;exitDx=0;exitDy=0;entryX=1;entryY=0.5;entryDx=0;entryDy=0;labelBackgroundColor=default;strokeColor=#6c8ebf;strokeWidth=1.5;align=center;verticalAlign=middle;fontFamily=Helvetica;fontSize=12;fontColor=default;endArrow=block;endFill=1;fillColor=#dae8fc;dashed=1;" edge="1" parent="1" source="zeuDGF3sF1mkNjUxLNfV-21" target="zeuDGF3sF1mkNjUxLNfV-33">
          <mxGeometry relative="1" as="geometry" />
        </mxCell>
        <mxCell id="zeuDGF3sF1mkNjUxLNfV-37" style="edgeStyle=orthogonalEdgeStyle;shape=connector;rounded=0;orthogonalLoop=1;jettySize=auto;html=1;exitX=0.5;exitY=1;exitDx=0;exitDy=0;labelBackgroundColor=default;strokeColor=default;strokeWidth=1.5;align=center;verticalAlign=middle;fontFamily=Helvetica;fontSize=12;fontColor=default;endArrow=block;endFill=1;" edge="1" parent="1" source="zeuDGF3sF1mkNjUxLNfV-21">
          <mxGeometry relative="1" as="geometry">
            <mxPoint x="562" y="560" as="targetPoint" />
          </mxGeometry>
        </mxCell>
        <mxCell id="zeuDGF3sF1mkNjUxLNfV-38" value="调用authenticate(AuthenticationToken token)" style="edgeLabel;html=1;align=center;verticalAlign=middle;resizable=0;points=[];" vertex="1" connectable="0" parent="zeuDGF3sF1mkNjUxLNfV-37">
          <mxGeometry x="-0.5685" y="2" relative="1" as="geometry">
            <mxPoint as="offset" />
          </mxGeometry>
        </mxCell>
        <mxCell id="zeuDGF3sF1mkNjUxLNfV-41" value="调用doAuthenticate(AuthenticationToken authenticationToken)" style="edgeLabel;html=1;align=center;verticalAlign=middle;resizable=0;points=[];" vertex="1" connectable="0" parent="zeuDGF3sF1mkNjUxLNfV-37">
          <mxGeometry x="-0.0872" y="-1" relative="1" as="geometry">
            <mxPoint as="offset" />
          </mxGeometry>
        </mxCell>
        <mxCell id="zeuDGF3sF1mkNjUxLNfV-43" value="调用assertRealmsConfigured()，断言是否配置了Realm&lt;br&gt;调用getRealms()，获取配置的Realm" style="edgeLabel;html=1;align=center;verticalAlign=middle;resizable=0;points=[];" vertex="1" connectable="0" parent="zeuDGF3sF1mkNjUxLNfV-37">
          <mxGeometry x="0.469" y="-1" relative="1" as="geometry">
            <mxPoint as="offset" />
          </mxGeometry>
        </mxCell>
        <mxCell id="zeuDGF3sF1mkNjUxLNfV-21" value="ModularRealmAuthenticator" style="rounded=0;whiteSpace=wrap;html=1;strokeColor=default;strokeWidth=1.5;align=center;verticalAlign=middle;fillColor=default;" vertex="1" parent="1">
          <mxGeometry x="482" y="400" width="160" height="40" as="geometry" />
        </mxCell>
        <mxCell id="zeuDGF3sF1mkNjUxLNfV-25" style="edgeStyle=orthogonalEdgeStyle;shape=connector;rounded=0;orthogonalLoop=1;jettySize=auto;html=1;exitX=0;exitY=0.5;exitDx=0;exitDy=0;entryX=1;entryY=0.5;entryDx=0;entryDy=0;labelBackgroundColor=default;strokeColor=#6c8ebf;strokeWidth=1.5;align=center;verticalAlign=middle;fontFamily=Helvetica;fontSize=12;fontColor=default;endArrow=block;endFill=1;fillColor=#dae8fc;dashed=1;" edge="1" parent="1">
          <mxGeometry relative="1" as="geometry">
            <mxPoint x="482" y="299.5" as="sourcePoint" />
            <mxPoint x="440" y="299.5" as="targetPoint" />
          </mxGeometry>
        </mxCell>
        <mxCell id="zeuDGF3sF1mkNjUxLNfV-26" style="edgeStyle=orthogonalEdgeStyle;shape=connector;rounded=0;orthogonalLoop=1;jettySize=auto;html=1;exitX=0;exitY=0.5;exitDx=0;exitDy=0;entryX=1;entryY=0.5;entryDx=0;entryDy=0;labelBackgroundColor=default;strokeColor=#6c8ebf;strokeWidth=1.5;align=center;verticalAlign=middle;fontFamily=Helvetica;fontSize=12;fontColor=default;endArrow=block;endFill=1;fillColor=#dae8fc;dashed=1;" edge="1" parent="1">
          <mxGeometry relative="1" as="geometry">
            <mxPoint x="282" y="299.5" as="sourcePoint" />
            <mxPoint x="240" y="299.5" as="targetPoint" />
          </mxGeometry>
        </mxCell>
        <mxCell id="zeuDGF3sF1mkNjUxLNfV-30" value="SecurityManager" style="rounded=0;whiteSpace=wrap;html=1;strokeColor=#3333FF;strokeWidth=1.5;align=center;verticalAlign=middle;fillColor=default;dashed=1;" vertex="1" parent="1">
          <mxGeometry x="-120" y="280" width="160" height="40" as="geometry" />
        </mxCell>
        <mxCell id="zeuDGF3sF1mkNjUxLNfV-31" style="edgeStyle=orthogonalEdgeStyle;shape=connector;rounded=0;orthogonalLoop=1;jettySize=auto;html=1;exitX=0;exitY=0.5;exitDx=0;exitDy=0;entryX=1;entryY=0.5;entryDx=0;entryDy=0;labelBackgroundColor=default;strokeColor=#6c8ebf;strokeWidth=1.5;align=center;verticalAlign=middle;fontFamily=Helvetica;fontSize=12;fontColor=default;endArrow=block;endFill=1;fillColor=#dae8fc;dashed=1;" edge="1" parent="1">
          <mxGeometry relative="1" as="geometry">
            <mxPoint x="82" y="299.5" as="sourcePoint" />
            <mxPoint x="40" y="299.5" as="targetPoint" />
          </mxGeometry>
        </mxCell>
        <mxCell id="zeuDGF3sF1mkNjUxLNfV-40" style="edgeStyle=orthogonalEdgeStyle;shape=connector;rounded=0;orthogonalLoop=1;jettySize=auto;html=1;exitX=0.75;exitY=1;exitDx=0;exitDy=0;labelBackgroundColor=default;strokeColor=#6c8ebf;strokeWidth=1.5;align=center;verticalAlign=middle;fontFamily=Helvetica;fontSize=12;fontColor=default;endArrow=block;endFill=1;entryX=0.75;entryY=1;entryDx=0;entryDy=0;dashed=1;fillColor=#dae8fc;" edge="1" parent="1" target="zeuDGF3sF1mkNjUxLNfV-33">
          <mxGeometry relative="1" as="geometry">
            <mxPoint x="400" y="447" as="targetPoint" />
            <mxPoint x="470" y="467" as="sourcePoint" />
          </mxGeometry>
        </mxCell>
        <mxCell id="zeuDGF3sF1mkNjUxLNfV-36" style="edgeStyle=orthogonalEdgeStyle;shape=connector;rounded=0;orthogonalLoop=1;jettySize=auto;html=1;exitX=0;exitY=0.5;exitDx=0;exitDy=0;entryX=1;entryY=0.5;entryDx=0;entryDy=0;labelBackgroundColor=default;strokeColor=#6c8ebf;strokeWidth=1.5;align=center;verticalAlign=middle;fontFamily=Helvetica;fontSize=12;fontColor=default;endArrow=block;endFill=1;dashed=1;fillColor=#dae8fc;" edge="1" parent="1" source="zeuDGF3sF1mkNjUxLNfV-33" target="zeuDGF3sF1mkNjUxLNfV-35">
          <mxGeometry relative="1" as="geometry" />
        </mxCell>
        <mxCell id="zeuDGF3sF1mkNjUxLNfV-33" value="AbstractAuthenticator" style="rounded=0;whiteSpace=wrap;html=1;strokeColor=#3333FF;strokeWidth=1.5;align=center;verticalAlign=middle;fillColor=default;dashed=1;" vertex="1" parent="1">
          <mxGeometry x="280" y="400" width="160" height="40" as="geometry" />
        </mxCell>
        <mxCell id="zeuDGF3sF1mkNjUxLNfV-35" value="Authenticator" style="rounded=0;whiteSpace=wrap;html=1;strokeColor=#3333FF;strokeWidth=1.5;align=center;verticalAlign=middle;fillColor=default;dashed=1;" vertex="1" parent="1">
          <mxGeometry x="80" y="400" width="160" height="40" as="geometry" />
        </mxCell>
        <mxCell id="zeuDGF3sF1mkNjUxLNfV-84" style="edgeStyle=orthogonalEdgeStyle;shape=connector;rounded=0;orthogonalLoop=1;jettySize=auto;html=1;labelBackgroundColor=default;strokeColor=default;strokeWidth=1.5;align=center;verticalAlign=middle;fontFamily=Helvetica;fontSize=12;fontColor=default;endArrow=block;endFill=1;" edge="1" parent="1">
          <mxGeometry relative="1" as="geometry">
            <mxPoint x="160" y="640" as="targetPoint" />
            <mxPoint x="500" y="580" as="sourcePoint" />
          </mxGeometry>
        </mxCell>
        <mxCell id="zeuDGF3sF1mkNjUxLNfV-92" value="1个，调用doSingleRealmAuthentication(&lt;br style=&quot;border-color: var(--border-color); background-color: rgb(251, 251, 251); font-size: 11px;&quot;&gt;&lt;span style=&quot;border-color: var(--border-color); background-color: rgb(251, 251, 251); font-size: 11px;&quot;&gt;Realm realm, AuthenticationToken token)&lt;/span&gt;" style="edgeLabel;html=1;align=center;verticalAlign=middle;resizable=0;points=[];fontSize=12;fontFamily=Helvetica;fontColor=default;" vertex="1" connectable="0" parent="zeuDGF3sF1mkNjUxLNfV-84">
          <mxGeometry x="0.1078" relative="1" as="geometry">
            <mxPoint x="51" as="offset" />
          </mxGeometry>
        </mxCell>
        <mxCell id="zeuDGF3sF1mkNjUxLNfV-94" style="edgeStyle=orthogonalEdgeStyle;shape=connector;rounded=0;orthogonalLoop=1;jettySize=auto;html=1;exitX=1;exitY=0.5;exitDx=0;exitDy=0;entryX=0.5;entryY=0;entryDx=0;entryDy=0;labelBackgroundColor=default;strokeColor=default;strokeWidth=1.5;align=center;verticalAlign=middle;fontFamily=Helvetica;fontSize=12;fontColor=default;endArrow=block;endFill=1;" edge="1" parent="1" source="zeuDGF3sF1mkNjUxLNfV-45" target="zeuDGF3sF1mkNjUxLNfV-93">
          <mxGeometry relative="1" as="geometry" />
        </mxCell>
        <mxCell id="zeuDGF3sF1mkNjUxLNfV-95" value="多个，调用doMultiRealmAuthentication(&lt;br style=&quot;border-color: var(--border-color); background-color: rgb(251, 251, 251); font-size: 11px;&quot;&gt;&lt;span style=&quot;background-color: rgb(251, 251, 251);&quot;&gt;Collection realms, AuthenticationToken token)&lt;/span&gt;&lt;br style=&quot;border-color: var(--border-color); background-color: rgb(251, 251, 251);&quot;&gt;" style="edgeLabel;html=1;align=center;verticalAlign=middle;resizable=0;points=[];fontSize=12;fontFamily=Helvetica;fontColor=default;" vertex="1" connectable="0" parent="zeuDGF3sF1mkNjUxLNfV-94">
          <mxGeometry x="-0.2176" y="1" relative="1" as="geometry">
            <mxPoint x="-9" y="1" as="offset" />
          </mxGeometry>
        </mxCell>
        <mxCell id="zeuDGF3sF1mkNjUxLNfV-45" value="判断Realms个数" style="rhombus;whiteSpace=wrap;html=1;rounded=0;strokeColor=default;strokeWidth=1.5;align=center;verticalAlign=middle;fontFamily=Helvetica;fontSize=12;fontColor=default;fillColor=default;" vertex="1" parent="1">
          <mxGeometry x="502" y="560" width="120" height="40" as="geometry" />
        </mxCell>
        <mxCell id="zeuDGF3sF1mkNjUxLNfV-63" style="edgeStyle=orthogonalEdgeStyle;shape=connector;rounded=0;orthogonalLoop=1;jettySize=auto;html=1;exitX=0.5;exitY=1;exitDx=0;exitDy=0;labelBackgroundColor=default;strokeColor=default;strokeWidth=1.5;align=center;verticalAlign=middle;fontFamily=Helvetica;fontSize=12;fontColor=default;endArrow=block;endFill=1;entryX=0.5;entryY=0;entryDx=0;entryDy=0;" edge="1" parent="1" source="zeuDGF3sF1mkNjUxLNfV-54" target="zeuDGF3sF1mkNjUxLNfV-70">
          <mxGeometry relative="1" as="geometry">
            <mxPoint x="140" y="800" as="targetPoint" />
          </mxGeometry>
        </mxCell>
        <mxCell id="zeuDGF3sF1mkNjUxLNfV-64" value="调用getAuthenticationInfo(AuthenticationToken token)" style="edgeLabel;html=1;align=center;verticalAlign=middle;resizable=0;points=[];" vertex="1" connectable="0" parent="zeuDGF3sF1mkNjUxLNfV-63">
          <mxGeometry x="-0.6515" relative="1" as="geometry">
            <mxPoint y="-1" as="offset" />
          </mxGeometry>
        </mxCell>
        <mxCell id="zeuDGF3sF1mkNjUxLNfV-66" value="调用getCachedAuthenticationInfo(AuthenticationToken token)，&lt;br&gt;从缓存中获取认证信息，若开启了缓存且缓存为空，则从缓存&lt;br&gt;管理器cacheManager.getCache(cacheName)获取认证信息" style="edgeLabel;html=1;align=center;verticalAlign=middle;resizable=0;points=[];" vertex="1" connectable="0" parent="zeuDGF3sF1mkNjUxLNfV-63">
          <mxGeometry x="-0.2199" y="-1" relative="1" as="geometry">
            <mxPoint y="7" as="offset" />
          </mxGeometry>
        </mxCell>
        <mxCell id="zeuDGF3sF1mkNjUxLNfV-69" value="若缓存中的认证信息为空，则调用CustomRealm中的&lt;br&gt;doGetAuthenticationInfo(AuthenticationToken token)" style="edgeLabel;html=1;align=center;verticalAlign=middle;resizable=0;points=[];" vertex="1" connectable="0" parent="zeuDGF3sF1mkNjUxLNfV-63">
          <mxGeometry x="0.5353" relative="1" as="geometry">
            <mxPoint as="offset" />
          </mxGeometry>
        </mxCell>
        <mxCell id="zeuDGF3sF1mkNjUxLNfV-54" value="自定义的CustomRealm" style="rounded=0;whiteSpace=wrap;html=1;strokeColor=default;strokeWidth=1.5;align=center;verticalAlign=middle;fillColor=default;" vertex="1" parent="1">
          <mxGeometry x="80" y="640" width="160" height="40" as="geometry" />
        </mxCell>
        <mxCell id="zeuDGF3sF1mkNjUxLNfV-59" value="Authenticating&lt;br&gt;Realm" style="rounded=0;whiteSpace=wrap;html=1;strokeColor=#3333FF;strokeWidth=1.5;align=center;verticalAlign=middle;fillColor=default;dashed=1;" vertex="1" parent="1">
          <mxGeometry x="-40" y="640" width="80" height="40" as="geometry" />
        </mxCell>
        <mxCell id="zeuDGF3sF1mkNjUxLNfV-60" value="Realm" style="rounded=0;whiteSpace=wrap;html=1;strokeColor=#3333FF;strokeWidth=1.5;align=center;verticalAlign=middle;fillColor=default;dashed=1;" vertex="1" parent="1">
          <mxGeometry x="-160" y="640" width="80" height="40" as="geometry" />
        </mxCell>
        <mxCell id="zeuDGF3sF1mkNjUxLNfV-61" style="edgeStyle=orthogonalEdgeStyle;shape=connector;rounded=0;orthogonalLoop=1;jettySize=auto;html=1;exitX=0;exitY=0.5;exitDx=0;exitDy=0;entryX=1;entryY=0.5;entryDx=0;entryDy=0;labelBackgroundColor=default;strokeColor=#6c8ebf;strokeWidth=1.5;align=center;verticalAlign=middle;fontFamily=Helvetica;fontSize=12;fontColor=default;endArrow=block;endFill=1;fillColor=#dae8fc;dashed=1;" edge="1" parent="1">
          <mxGeometry relative="1" as="geometry">
            <mxPoint x="80" y="659.5" as="sourcePoint" />
            <mxPoint x="38" y="659.5" as="targetPoint" />
          </mxGeometry>
        </mxCell>
        <mxCell id="zeuDGF3sF1mkNjUxLNfV-62" style="edgeStyle=orthogonalEdgeStyle;shape=connector;rounded=0;orthogonalLoop=1;jettySize=auto;html=1;exitX=0;exitY=0.5;exitDx=0;exitDy=0;entryX=1;entryY=0.5;entryDx=0;entryDy=0;labelBackgroundColor=default;strokeColor=#6c8ebf;strokeWidth=1.5;align=center;verticalAlign=middle;fontFamily=Helvetica;fontSize=12;fontColor=default;endArrow=block;endFill=1;fillColor=#dae8fc;dashed=1;" edge="1" parent="1">
          <mxGeometry relative="1" as="geometry">
            <mxPoint x="-40" y="659.5" as="sourcePoint" />
            <mxPoint x="-82" y="659.5" as="targetPoint" />
          </mxGeometry>
        </mxCell>
        <mxCell id="zeuDGF3sF1mkNjUxLNfV-75" style="edgeStyle=orthogonalEdgeStyle;shape=connector;rounded=0;orthogonalLoop=1;jettySize=auto;html=1;labelBackgroundColor=default;strokeColor=default;strokeWidth=1.5;align=center;verticalAlign=middle;fontFamily=Helvetica;fontSize=12;fontColor=default;endArrow=block;endFill=1;exitX=1;exitY=0.5;exitDx=0;exitDy=0;" edge="1" parent="1" source="zeuDGF3sF1mkNjUxLNfV-70">
          <mxGeometry relative="1" as="geometry">
            <mxPoint x="260" y="835" as="sourcePoint" />
            <mxPoint x="294" y="705" as="targetPoint" />
            <Array as="points">
              <mxPoint x="240" y="835" />
              <mxPoint x="450" y="835" />
              <mxPoint x="450" y="705" />
            </Array>
          </mxGeometry>
        </mxCell>
        <mxCell id="zeuDGF3sF1mkNjUxLNfV-76" value="调用cacheAuthenticationInfoIfPossible(AuthenticationToken token,&lt;br&gt;AuthenticationInfo info)判断是否开启了缓存，是则缓存起来" style="edgeLabel;html=1;align=center;verticalAlign=middle;resizable=0;points=[];" vertex="1" connectable="0" parent="zeuDGF3sF1mkNjUxLNfV-75">
          <mxGeometry x="-0.1053" relative="1" as="geometry">
            <mxPoint x="11" y="-28" as="offset" />
          </mxGeometry>
        </mxCell>
        <mxCell id="zeuDGF3sF1mkNjUxLNfV-77" value="调用assertCredentialsMatch(AuthenticationToken token, &lt;br&gt;AuthenticationInfo info)，通过获取配置中的Credentials&lt;br&gt;Matcher判断密码是否正确" style="edgeLabel;html=1;align=center;verticalAlign=middle;resizable=0;points=[];" vertex="1" connectable="0" parent="zeuDGF3sF1mkNjUxLNfV-75">
          <mxGeometry x="0.1285" relative="1" as="geometry">
            <mxPoint x="4" y="-23" as="offset" />
          </mxGeometry>
        </mxCell>
        <mxCell id="zeuDGF3sF1mkNjUxLNfV-70" value="SimpleAuthenticationInfo" style="rounded=0;whiteSpace=wrap;html=1;strokeColor=default;strokeWidth=1.5;align=center;verticalAlign=middle;fillColor=default;" vertex="1" parent="1">
          <mxGeometry x="80" y="810" width="160" height="40" as="geometry" />
        </mxCell>
        <mxCell id="zeuDGF3sF1mkNjUxLNfV-71" value="Authentication&lt;br&gt;Info" style="rounded=0;whiteSpace=wrap;html=1;strokeColor=#3333FF;strokeWidth=1.5;align=center;verticalAlign=middle;fillColor=default;dashed=1;" vertex="1" parent="1">
          <mxGeometry x="-40" y="810" width="80" height="40" as="geometry" />
        </mxCell>
        <mxCell id="zeuDGF3sF1mkNjUxLNfV-73" style="edgeStyle=orthogonalEdgeStyle;shape=connector;rounded=0;orthogonalLoop=1;jettySize=auto;html=1;exitX=0;exitY=0.5;exitDx=0;exitDy=0;entryX=1;entryY=0.5;entryDx=0;entryDy=0;labelBackgroundColor=default;strokeColor=#6c8ebf;strokeWidth=1.5;align=center;verticalAlign=middle;fontFamily=Helvetica;fontSize=12;fontColor=default;endArrow=block;endFill=1;fillColor=#dae8fc;dashed=1;" edge="1" parent="1">
          <mxGeometry relative="1" as="geometry">
            <mxPoint x="80" y="829.5" as="sourcePoint" />
            <mxPoint x="38" y="829.5" as="targetPoint" />
          </mxGeometry>
        </mxCell>
        <mxCell id="zeuDGF3sF1mkNjUxLNfV-93" value="略" style="rounded=0;whiteSpace=wrap;html=1;strokeColor=default;strokeWidth=1.5;align=center;verticalAlign=middle;fillColor=default;" vertex="1" parent="1">
          <mxGeometry x="960" y="640" width="160" height="40" as="geometry" />
        </mxCell>
        <mxCell id="zeuDGF3sF1mkNjUxLNfV-96" value="" style="endArrow=block;html=1;rounded=0;labelBackgroundColor=default;strokeColor=default;strokeWidth=1.5;align=center;verticalAlign=middle;fontFamily=Helvetica;fontSize=12;fontColor=default;shape=connector;endFill=1;" edge="1" parent="1">
          <mxGeometry width="50" height="50" relative="1" as="geometry">
            <mxPoint x="415" y="565" as="sourcePoint" />
            <mxPoint x="415" y="505" as="targetPoint" />
          </mxGeometry>
        </mxCell>
        <mxCell id="zeuDGF3sF1mkNjUxLNfV-97" value="" style="endArrow=block;html=1;rounded=0;labelBackgroundColor=default;strokeColor=default;strokeWidth=1.5;align=center;verticalAlign=middle;fontFamily=Helvetica;fontSize=12;fontColor=default;shape=connector;endFill=1;" edge="1" parent="1">
          <mxGeometry width="50" height="50" relative="1" as="geometry">
            <mxPoint x="710" y="564" as="sourcePoint" />
            <mxPoint x="710" y="504" as="targetPoint" />
          </mxGeometry>
        </mxCell>
        <mxCell id="zeuDGF3sF1mkNjUxLNfV-100" value="" style="endArrow=block;html=1;rounded=0;labelBackgroundColor=default;strokeColor=default;strokeWidth=1.5;align=center;verticalAlign=middle;fontFamily=Helvetica;fontSize=12;fontColor=default;shape=connector;endFill=1;" edge="1" parent="1">
          <mxGeometry width="50" height="50" relative="1" as="geometry">
            <mxPoint x="660" y="460" as="sourcePoint" />
            <mxPoint x="660" y="380" as="targetPoint" />
          </mxGeometry>
        </mxCell>
        <mxCell id="zeuDGF3sF1mkNjUxLNfV-104" value="" style="endArrow=classic;html=1;rounded=0;labelBackgroundColor=default;strokeColor=default;strokeWidth=1.5;align=center;verticalAlign=middle;fontFamily=Helvetica;fontSize=12;fontColor=default;shape=connector;" edge="1" parent="1">
          <mxGeometry width="50" height="50" relative="1" as="geometry">
            <mxPoint x="650" y="337" as="sourcePoint" />
            <mxPoint x="630" y="257" as="targetPoint" />
            <Array as="points">
              <mxPoint x="650" y="257" />
            </Array>
          </mxGeometry>
        </mxCell>
        <mxCell id="zeuDGF3sF1mkNjUxLNfV-105" value="修改当前Subject的用户principal、session&lt;br&gt;为已登录用户，并标记为已登录用户，&lt;br&gt;至此，Shiro认证过程全部结束。" style="edgeLabel;html=1;align=center;verticalAlign=middle;resizable=0;points=[];fontSize=12;fontFamily=Helvetica;fontColor=default;" vertex="1" connectable="0" parent="zeuDGF3sF1mkNjUxLNfV-104">
          <mxGeometry x="0.36" y="-3" relative="1" as="geometry">
            <mxPoint x="107" y="2" as="offset" />
          </mxGeometry>
        </mxCell>
        <mxCell id="zeuDGF3sF1mkNjUxLNfV-106" value="&lt;font style=&quot;font-size: 14px;&quot;&gt;虚线框的为父类或者父接口&lt;/font&gt;" style="text;html=1;align=center;verticalAlign=middle;resizable=0;points=[];autosize=1;strokeColor=none;fillColor=none;fontSize=12;fontFamily=Helvetica;fontColor=default;" vertex="1" parent="1">
          <mxGeometry x="150" y="120" width="190" height="30" as="geometry" />
        </mxCell>
      </root>
    </mxGraphModel>
  </diagram>
</mxfile>
